<svg width="128" height="16" viewBox="0 0 128 16" fill="none" xmlns="http://www.w3.org/2000/svg">
<path d="M3.3066 9.96808L2.61168 13.9354C2.53148 14.3773 2.71144 14.8184 3.08018 15.0864C3.2934 15.2412 3.54525 15.3201 3.79857 15.3201C3.98392 15.3201 4.17024 15.278 4.34336 15.1925L8.08548 13.3419L11.633 15.1638C12.0394 15.375 12.525 15.343 12.9006 15.0812C13.2776 14.8179 13.4659 14.3759 13.3906 13.9206L12.6922 9.96808L15.6348 7.16476C15.9668 6.84844 16.0832 6.38497 15.9394 5.95398C15.7957 5.52347 15.4201 5.21671 14.9623 5.15364L10.9019 4.57644L9.08068 0.972778C8.87088 0.567115 8.44933 0.317696 7.99061 0.320085C7.53092 0.322952 7.11963 0.575237 6.91668 0.978512L5.1004 4.57597L1.03502 5.15316C0.576304 5.21671 0.203166 5.52347 0.0598781 5.95398C-0.08341 6.38544 0.0349382 6.85036 0.366995 7.16428L3.3066 9.96808Z" fill="#EB6737"/>
<path d="M31.3066 9.96808L30.6117 13.9354C30.5315 14.3773 30.7114 14.8184 31.0802 15.0864C31.2934 15.2412 31.5453 15.3201 31.7986 15.3201C31.9839 15.3201 32.1702 15.278 32.3434 15.1925L36.0855 13.3419L39.633 15.1638C40.0394 15.375 40.525 15.343 40.9006 15.0812C41.2776 14.8179 41.4659 14.3759 41.3906 13.9206L40.6922 9.96808L43.6348 7.16476C43.9668 6.84844 44.0832 6.38497 43.9394 5.95398C43.7957 5.52347 43.4201 5.21671 42.9623 5.15364L38.9019 4.57644L37.0807 0.972778C36.8709 0.567115 36.4493 0.317696 35.9906 0.320085C35.5309 0.322952 35.1196 0.575237 34.9167 0.978512L33.1004 4.57597L29.035 5.15316C28.5763 5.21671 28.2032 5.52347 28.0599 5.95398C27.9166 6.38544 28.0349 6.85036 28.367 7.16428L31.3066 9.96808Z" fill="#EB6737"/>
<path d="M59.3066 9.96808L58.6117 13.9354C58.5315 14.3773 58.7114 14.8184 59.0802 15.0864C59.2934 15.2412 59.5453 15.3201 59.7986 15.3201C59.9839 15.3201 60.1702 15.278 60.3434 15.1925L64.0855 13.3419L67.633 15.1638C68.0394 15.375 68.525 15.343 68.9006 15.0812C69.2776 14.8179 69.4659 14.3759 69.3906 13.9206L68.6922 9.96808L71.6348 7.16476C71.9668 6.84844 72.0832 6.38497 71.9394 5.95398C71.7957 5.52347 71.4201 5.21671 70.9623 5.15364L66.9019 4.57644L65.0807 0.972778C64.8709 0.567115 64.4493 0.317696 63.9906 0.320085C63.5309 0.322952 63.1196 0.575237 62.9167 0.978512L61.1004 4.57597L57.035 5.15316C56.5763 5.21671 56.2032 5.52347 56.0599 5.95398C55.9166 6.38544 56.0349 6.85036 56.367 7.16428L59.3066 9.96808Z" fill="#EB6737"/>
<path d="M87.3066 9.96808L86.6117 13.9354C86.5315 14.3773 86.7114 14.8184 87.0802 15.0864C87.2934 15.2412 87.5453 15.3201 87.7986 15.3201C87.9839 15.3201 88.1702 15.278 88.3434 15.1925L92.0855 13.3419L95.633 15.1638C96.0394 15.375 96.525 15.343 96.9006 15.0812C97.2776 14.8179 97.4659 14.3759 97.3906 13.9206L96.6922 9.96808L99.6348 7.16476C99.9668 6.84844 100.083 6.38497 99.9394 5.95398C99.7957 5.52347 99.4201 5.21671 98.9623 5.15364L94.9019 4.57644L93.0807 0.972778C92.8709 0.567115 92.4493 0.317696 91.9906 0.320085C91.5309 0.322952 91.1196 0.575237 90.9167 0.978512L89.1004 4.57597L85.035 5.15316C84.5763 5.21671 84.2032 5.52347 84.0599 5.95398C83.9166 6.38544 84.0349 6.85036 84.367 7.16428L87.3066 9.96808Z" fill="#EB6737"/>
<path d="M115.307 9.96808L114.612 13.9354C114.531 14.3773 114.711 14.8184 115.08 15.0864C115.293 15.2412 115.545 15.3201 115.799 15.3201C115.984 15.3201 116.17 15.278 116.343 15.1925L120.085 13.3419L123.633 15.1638C124.039 15.375 124.525 15.343 124.901 15.0812C125.278 14.8179 125.466 14.3759 125.391 13.9206L124.692 9.96808L127.635 7.16476C127.967 6.84844 128.083 6.38497 127.939 5.95398C127.796 5.52347 127.42 5.21671 126.962 5.15364L122.902 4.57644L121.081 0.972778C120.871 0.567115 120.449 0.317696 119.991 0.320085C119.531 0.322952 119.12 0.575237 118.917 0.978512L117.1 4.57597L113.035 5.15316C112.576 5.21671 112.203 5.52347 112.06 5.95398C111.917 6.38544 112.035 6.85036 112.367 7.16428L115.307 9.96808Z" fill="#EB6737"/>
</svg>
