<svg width="128" height="15" viewBox="0 0 128 15" fill="none" xmlns="http://www.w3.org/2000/svg">
<path d="M3.3066 9.64802L2.61168 13.6153C2.53148 14.0573 2.71144 14.4983 3.08018 14.7663C3.2934 14.9212 3.54525 15 3.79857 15C3.98392 15 4.17024 14.958 4.34336 14.8724L8.08548 13.0219L11.633 14.8438C12.0394 15.0549 12.525 15.0229 12.9006 14.7611C13.2776 14.4978 13.4659 14.0558 13.3906 13.6005L12.6922 9.64802L15.6348 6.84469C15.9668 6.52838 16.0832 6.0649 15.9394 5.63391C15.7957 5.2034 15.4201 4.89664 14.9623 4.83357L10.9019 4.25637L9.08068 0.65271C8.87088 0.247046 8.44933 -0.00237205 7.99061 1.70102e-05C7.53092 0.00288389 7.11963 0.255169 6.91668 0.658443L5.1004 4.2559L1.03502 4.8331C0.576304 4.89664 0.203166 5.2034 0.0598781 5.63391C-0.08341 6.06537 0.0349382 6.53029 0.366995 6.84421L3.3066 9.64802Z" fill="#FFD155"/>
<path d="M31.3066 9.64802L30.6117 13.6153C30.5315 14.0573 30.7114 14.4983 31.0802 14.7663C31.2934 14.9212 31.5453 15 31.7986 15C31.9839 15 32.1702 14.958 32.3434 14.8724L36.0855 13.0219L39.633 14.8438C40.0394 15.0549 40.525 15.0229 40.9006 14.7611C41.2776 14.4978 41.4659 14.0558 41.3906 13.6005L40.6922 9.64802L43.6348 6.84469C43.9668 6.52838 44.0832 6.0649 43.9394 5.63391C43.7957 5.2034 43.4201 4.89664 42.9623 4.83357L38.9019 4.25637L37.0807 0.65271C36.8709 0.247046 36.4493 -0.00237205 35.9906 1.70102e-05C35.5309 0.00288389 35.1196 0.255169 34.9167 0.658443L33.1004 4.2559L29.035 4.8331C28.5763 4.89664 28.2032 5.2034 28.0599 5.63391C27.9166 6.06537 28.0349 6.53029 28.367 6.84421L31.3066 9.64802Z" fill="#FFD155"/>
<path d="M59.3066 9.64802L58.6117 13.6153C58.5315 14.0573 58.7114 14.4983 59.0802 14.7663C59.2934 14.9212 59.5453 15 59.7986 15C59.9839 15 60.1702 14.958 60.3434 14.8724L64.0855 13.0219L67.633 14.8438C68.0394 15.0549 68.525 15.0229 68.9006 14.7611C69.2776 14.4978 69.4659 14.0558 69.3906 13.6005L68.6922 9.64802L71.6348 6.84469C71.9668 6.52838 72.0832 6.0649 71.9394 5.63391C71.7957 5.2034 71.4201 4.89664 70.9623 4.83357L66.9019 4.25637L65.0807 0.65271C64.8709 0.247046 64.4493 -0.00237205 63.9906 1.70102e-05C63.5309 0.00288389 63.1196 0.255169 62.9167 0.658443L61.1004 4.2559L57.035 4.8331C56.5763 4.89664 56.2032 5.2034 56.0599 5.63391C55.9166 6.06537 56.0349 6.53029 56.367 6.84421L59.3066 9.64802Z" fill="#FFD155"/>
<path d="M87.3066 9.64802L86.6117 13.6153C86.5315 14.0573 86.7114 14.4983 87.0802 14.7663C87.2934 14.9212 87.5453 15 87.7986 15C87.9839 15 88.1702 14.958 88.3434 14.8724L92.0855 13.0219L95.633 14.8438C96.0394 15.0549 96.525 15.0229 96.9006 14.7611C97.2776 14.4978 97.4659 14.0558 97.3906 13.6005L96.6922 9.64802L99.6348 6.84469C99.9668 6.52838 100.083 6.0649 99.9394 5.63391C99.7957 5.2034 99.4201 4.89664 98.9623 4.83357L94.9019 4.25637L93.0807 0.65271C92.8709 0.247046 92.4493 -0.00237205 91.9906 1.70102e-05C91.5309 0.00288389 91.1196 0.255169 90.9167 0.658443L89.1004 4.2559L85.035 4.8331C84.5763 4.89664 84.2032 5.2034 84.0599 5.63391C83.9166 6.06537 84.0349 6.53029 84.367 6.84421L87.3066 9.64802Z" fill="#FFD155"/>
<path d="M115.307 9.64802L114.612 13.6153C114.531 14.0573 114.711 14.4983 115.08 14.7663C115.293 14.9212 115.545 15 115.799 15C115.984 15 116.17 14.958 116.343 14.8724L120.085 13.0219L123.633 14.8438C124.039 15.0549 124.525 15.0229 124.901 14.7611C125.278 14.4978 125.466 14.0558 125.391 13.6005L124.692 9.64802L127.635 6.84469C127.967 6.52838 128.083 6.0649 127.939 5.63391C127.796 5.2034 127.42 4.89664 126.962 4.83357L122.902 4.25637L121.081 0.65271C120.871 0.247046 120.449 -0.00237205 119.991 1.70102e-05C119.531 0.00288389 119.12 0.255169 118.917 0.658443L117.1 4.2559L113.035 4.8331C112.576 4.89664 112.203 5.2034 112.06 5.63391C111.917 6.06537 112.035 6.53029 112.367 6.84421L115.307 9.64802Z" fill="#FFD155"/>
</svg>
