<svg width="54" height="54" viewBox="0 0 54 54" fill="none" xmlns="http://www.w3.org/2000/svg">
<path d="M37.6172 27.9261C37.517 28.0263 37.3786 28.0884 37.2257 28.0881L17.5778 28.0862C17.272 28.0862 17.0242 27.8385 17.0242 27.5327C17.0242 27.2269 17.272 26.9792 17.5775 26.9795L37.2254 26.9819C37.5312 26.9819 37.7789 27.2296 37.7789 27.5354C37.7789 27.6875 37.7171 27.8261 37.6172 27.9261Z" fill="white"/>
<path d="M27.7941 37.7491C27.6939 37.8493 27.5558 37.9111 27.4029 37.9114C27.0972 37.9114 26.8494 37.6637 26.8494 37.3579L26.8494 17.7075C26.8494 17.4018 27.0969 17.1543 27.4027 17.1543C27.7084 17.1543 27.9562 17.402 27.9562 17.7078L27.9562 37.3582C27.9559 37.5105 27.8944 37.6489 27.7941 37.7491Z" fill="white"/>
<path d="M13.0831 40.7902C20.6857 48.3928 33.0559 48.3913 40.6603 40.787C48.2622 33.185 48.2614 20.8163 40.6592 13.2141C33.0552 5.6101 20.6852 5.60773 13.0831 13.2098C5.4787 20.8142 5.47898 33.1861 13.0831 40.7902Z" fill="url(#paint0_linear_1109_8531)" stroke="white"/>
<defs>
<linearGradient id="paint0_linear_1109_8531" x1="0" y1="27" x2="53.739" y2="26.9989" gradientUnits="userSpaceOnUse">
<stop stop-color="white" stop-opacity="0.04"/>
<stop offset="1" stop-color="white" stop-opacity="0.17"/>
</linearGradient>
</defs>
</svg>
