<svg width="16" height="16" viewBox="0 0 16 16" fill="none" xmlns="http://www.w3.org/2000/svg">
<path d="M3.3066 10.148L2.61168 14.1153C2.53148 14.5573 2.71144 14.9983 3.08018 15.2663C3.2934 15.4212 3.54525 15.5 3.79857 15.5C3.98392 15.5 4.17024 15.458 4.34336 15.3724L8.08548 13.5219L11.633 15.3438C12.0394 15.5549 12.525 15.5229 12.9006 15.2611C13.2776 14.9978 13.4659 14.5558 13.3906 14.1005L12.6922 10.148L15.6348 7.34469C15.9668 7.02838 16.0832 6.5649 15.9394 6.13391C15.7957 5.7034 15.4201 5.39664 14.9623 5.33357L10.9019 4.75637L9.08068 1.15271C8.87088 0.747046 8.44933 0.497628 7.99061 0.500017C7.53092 0.502884 7.11963 0.755169 6.91668 1.15844L5.1004 4.7559L1.03502 5.3331C0.576304 5.39664 0.203166 5.7034 0.0598781 6.13391C-0.08341 6.56537 0.0349382 7.03029 0.366995 7.34421L3.3066 10.148Z" fill="#FFD155"/>
</svg>
