<svg width="20" height="20" viewBox="0 0 20 20" fill="none" xmlns="http://www.w3.org/2000/svg">
<path d="M15 1C15 0.447 14.552 0 14 0C13.448 0 13 0.447 13 1H7C7 0.447 6.552 0 6 0C5.448 0 5 0.447 5 1C2.243 1 0 3.243 0 6V15C0 17.757 2.243 20 5 20H15C17.757 20 20 17.757 20 15V6C20 3.243 17.757 1 15 1ZM5 3V4C5 4.553 5.448 5 6 5C6.552 5 7 4.553 7 4V3H13V4C13 4.553 13.448 5 14 5C14.552 5 15 4.553 15 4V3C16.654 3 18 4.346 18 6H2C2 4.346 3.346 3 5 3ZM15 18H5C3.346 18 2 16.654 2 15V8H18V15C18 16.654 16.654 18 15 18ZM15 11C15 11.552 14.552 12 14 12C13.448 12 13 11.552 13 11C13 10.448 13.448 10 14 10C14.552 10 15 10.448 15 11ZM11 11C11 11.552 10.552 12 10 12C9.448 12 9 11.552 9 11C9 10.448 9.448 10 10 10C10.552 10 11 10.448 11 11ZM7 11C7 11.552 6.552 12 6 12C5.448 12 5 11.552 5 11C5 10.448 5.448 10 6 10C6.552 10 7 10.448 7 11ZM15 15C15 15.552 14.552 16 14 16C13.448 16 13 15.552 13 15C13 14.448 13.448 14 14 14C14.552 14 15 14.448 15 15ZM11 15C11 15.552 10.552 16 10 16C9.448 16 9 15.552 9 15C9 14.448 9.448 14 10 14C10.552 14 11 14.448 11 15ZM7 15C7 15.552 6.552 16 6 16C5.448 16 5 15.552 5 15C5 14.448 5.448 14 6 14C6.552 14 7 14.448 7 15Z" fill="#FFD155"/>
</svg>
