<svg width="16" height="20" viewBox="0 0 16 20" fill="none" xmlns="http://www.w3.org/2000/svg">
<path d="M8.00049 3.99951C5.79449 3.99951 4.00049 5.79351 4.00049 7.99951C4.00049 10.2055 5.79449 11.9995 8.00049 11.9995C10.2065 11.9995 12.0005 10.2055 12.0005 7.99951C12.0005 5.79351 10.2065 3.99951 8.00049 3.99951ZM8.00049 9.99951C6.89749 9.99951 6.00049 9.10251 6.00049 7.99951C6.00049 6.89651 6.89749 5.99951 8.00049 5.99951C9.10349 5.99951 10.0005 6.89651 10.0005 7.99951C10.0005 9.10251 9.10349 9.99951 8.00049 9.99951ZM7.99649 -0.000488281C3.43749 -0.000488281 0.000488281 3.43851 0.000488281 7.99951C0.000488281 14.3255 4.81248 18.2595 6.88148 19.6565C7.21948 19.8855 7.60849 20.0005 7.99649 20.0005C8.38349 20.0005 8.77049 19.8864 9.10849 19.6584C11.1805 18.2594 15.9995 14.3235 15.9995 7.99951C16.0005 3.43851 12.5595 -0.000488281 7.99649 -0.000488281ZM8.0015 17.9995C6.1975 16.7805 2.00049 13.3665 2.00049 7.99951C2.00049 4.52251 4.52149 1.99951 7.99649 1.99951C11.4195 1.99951 14.0005 4.57851 14.0005 7.99951C14.0005 13.3635 9.79749 16.7805 8.0015 17.9995Z" fill="#FFD155"/>
</svg>
