<svg width="131" height="23" viewBox="0 0 131 23" fill="none" xmlns="http://www.w3.org/2000/svg">
<path d="M57.0765 15.6152V11.0655C57.0765 9.33658 55.9367 8.18397 54.1003 8.18397C53.1188 8.18397 52.1373 8.45696 51.4408 9.48824C50.9026 8.66928 50.0794 8.18397 48.9396 8.18397C48.1164 8.18397 47.3249 8.42663 46.7233 9.27592V8.36597H45.0769V15.6152H46.755V11.5811C46.755 10.3072 47.4832 9.6399 48.623 9.6399C49.7311 9.6399 50.2694 10.3375 50.2694 11.5508V15.5849H51.9474V11.5811C51.9474 10.3072 52.7072 9.6399 53.8154 9.6399C54.9552 9.6399 55.4934 10.3375 55.4934 11.5508V15.5849H57.0765V15.6152ZM81.7087 8.36597H79.0175V6.15175H77.3395V8.36597H75.7881V9.82189H77.3395V13.128C77.3395 14.8266 78.036 15.8276 79.9674 15.8276C80.6956 15.8276 81.5187 15.6152 82.0253 15.2513L81.5504 13.8863C81.0438 14.1593 80.5056 14.311 80.094 14.311C79.2708 14.311 78.9859 13.8257 78.9859 13.0977V9.79156H81.677V8.36597H81.7087ZM95.7662 8.18397C94.8163 8.18397 94.1831 8.60862 93.7715 9.24558V8.36597H92.1252V15.6152H93.7715V11.5508C93.7715 10.3375 94.3098 9.67023 95.3863 9.67023C95.7345 9.67023 96.0828 9.73089 96.4311 9.85222L96.9376 8.36597C96.5894 8.24464 96.1144 8.18397 95.7662 8.18397ZM74.5217 8.94227C73.7301 8.42663 72.622 8.18397 71.4189 8.18397C69.4876 8.18397 68.2528 9.06359 68.2528 10.5195C68.2528 11.7025 69.171 12.4304 70.8807 12.6731L71.6722 12.7944C72.5903 12.9157 73.0019 13.1584 73.0019 13.5527C73.0019 14.129 72.4004 14.4323 71.2606 14.4323C70.1208 14.4323 69.2976 14.0683 68.7277 13.674L67.9362 14.9176C68.8543 15.5546 69.9941 15.8579 71.2289 15.8579C73.4135 15.8579 74.68 14.8569 74.68 13.492C74.68 12.2181 73.6668 11.5508 72.0204 11.3081L71.2289 11.1868C70.5007 11.0958 69.9308 10.9442 69.9308 10.4589C69.9308 9.91288 70.4691 9.60956 71.3872 9.60956C72.3687 9.60956 73.2869 9.97355 73.7618 10.2465L74.5217 8.94227ZM118.689 8.18397C117.739 8.18397 117.106 8.60862 116.694 9.24558V8.36597H115.048V15.6152H116.694V11.5508C116.694 10.3375 117.232 9.67023 118.309 9.67023C118.657 9.67023 119.005 9.73089 119.354 9.85222L119.86 8.36597C119.512 8.24464 119.037 8.18397 118.689 8.18397ZM97.4442 11.9754C97.4442 14.1897 99.0589 15.7972 101.497 15.7972C102.637 15.7972 103.396 15.5546 104.22 14.9176L103.428 13.6437C102.795 14.0683 102.162 14.311 101.433 14.311C100.104 14.311 99.1539 13.3707 99.1539 11.9754C99.1539 10.5802 100.135 9.67023 101.433 9.6399C102.162 9.6399 102.795 9.88255 103.428 10.3072L104.22 9.03326C103.396 8.3963 102.637 8.15364 101.497 8.15364C99.0589 8.18397 97.4442 9.79155 97.4442 11.9754ZM112.895 11.9754V8.33563H111.248V9.21525C110.71 8.54796 109.919 8.15364 108.842 8.15364C106.721 8.15364 105.043 9.76122 105.043 11.9754C105.043 14.1897 106.721 15.7972 108.842 15.7972C109.919 15.7972 110.71 15.3726 111.248 14.7356V15.6152H112.895V11.9754ZM106.753 11.9754C106.753 10.7015 107.639 9.6399 109.064 9.6399C110.425 9.6399 111.343 10.6408 111.343 11.9754C111.343 13.31 110.425 14.311 109.064 14.311C107.639 14.311 106.753 13.2494 106.753 11.9754ZM86.8378 8.18397C84.6215 8.18397 83.0701 9.73089 83.0701 12.0058C83.0701 14.311 84.6848 15.8276 86.9644 15.8276C88.1042 15.8276 89.149 15.5546 90.0672 14.7963L89.244 13.6133C88.6108 14.0987 87.7876 14.3716 87.0277 14.3716C85.9513 14.3716 85.0014 13.8863 84.7482 12.5821H90.3838C90.4155 12.3697 90.4155 12.1878 90.4155 11.9754C90.4471 9.73089 88.9591 8.18397 86.8378 8.18397ZM86.8061 9.57923C87.8826 9.57923 88.5475 10.2162 88.7374 11.3385H84.8115C84.9698 10.3072 85.6347 9.57923 86.8061 9.57923ZM128.187 11.9754V5.45412H126.541V9.24558C126.002 8.57829 125.211 8.18397 124.134 8.18397C122.013 8.18397 120.335 9.79156 120.335 12.0058C120.335 14.22 122.013 15.8276 124.134 15.8276C125.211 15.8276 126.002 15.4029 126.541 14.766V15.6456H128.187V11.9754ZM130.118 14.9479C130.182 14.9479 130.245 14.9479 130.308 14.9783C130.372 15.0086 130.435 15.0389 130.467 15.0693C130.498 15.0996 130.562 15.1603 130.562 15.2209C130.593 15.2816 130.593 15.3423 130.593 15.4029C130.593 15.4636 130.593 15.5242 130.562 15.5849C130.53 15.6456 130.498 15.6759 130.467 15.7366C130.435 15.7669 130.372 15.7972 130.308 15.8276C130.245 15.8579 130.182 15.8579 130.118 15.8579C130.055 15.8579 129.992 15.8579 129.928 15.8276C129.865 15.7972 129.802 15.7669 129.77 15.7366C129.738 15.7062 129.707 15.6456 129.675 15.5849C129.643 15.5242 129.643 15.4636 129.643 15.4029C129.643 15.3423 129.643 15.2816 129.675 15.2209C129.707 15.1603 129.738 15.1299 129.77 15.0693C129.802 15.0389 129.865 15.0086 129.928 14.9783C129.992 14.9479 130.055 14.9479 130.118 14.9479ZM130.118 15.7669C130.182 15.7669 130.213 15.7669 130.277 15.7366C130.308 15.7062 130.372 15.7062 130.403 15.6456C130.435 15.6152 130.467 15.5849 130.498 15.5242C130.53 15.4939 130.53 15.4333 130.53 15.3726C130.53 15.3119 130.53 15.2816 130.498 15.2209C130.467 15.1906 130.467 15.1299 130.403 15.0996C130.372 15.0693 130.34 15.0389 130.277 15.0086C130.245 14.9783 130.182 14.9783 130.118 14.9783C130.055 14.9783 130.023 14.9783 129.96 15.0086C129.928 15.0389 129.865 15.0389 129.833 15.0996C129.802 15.1299 129.77 15.1603 129.738 15.2209C129.707 15.2513 129.707 15.3119 129.707 15.3726C129.707 15.4333 129.707 15.4636 129.738 15.5242C129.77 15.5546 129.77 15.6152 129.833 15.6456C129.865 15.6759 129.897 15.7062 129.96 15.7366C130.023 15.7669 130.055 15.7669 130.118 15.7669ZM130.15 15.1906C130.213 15.1906 130.245 15.1906 130.277 15.2209C130.308 15.2513 130.308 15.2816 130.308 15.3119C130.308 15.3423 130.308 15.3726 130.277 15.4029C130.245 15.4333 130.213 15.4333 130.182 15.4333L130.34 15.5849H130.213L130.087 15.4333H130.023V15.5849H129.928V15.1603H130.15V15.1906ZM130.023 15.2816V15.4029H130.118C130.15 15.4029 130.15 15.4029 130.182 15.4029L130.213 15.3726C130.213 15.3423 130.213 15.3423 130.182 15.3423C130.182 15.3423 130.15 15.3423 130.118 15.3423H130.023V15.2816ZM122.045 11.9754C122.045 10.7015 122.931 9.6399 124.356 9.6399C125.717 9.6399 126.636 10.6408 126.636 11.9754C126.636 13.31 125.717 14.311 124.356 14.311C122.931 14.311 122.045 13.2494 122.045 11.9754ZM66.3531 11.9754V8.33563H64.7068V9.21525C64.1685 8.54796 63.377 8.15364 62.3005 8.15364C60.1792 8.15364 58.5012 9.76122 58.5012 11.9754C58.5012 14.1897 60.1792 15.7972 62.3005 15.7972C63.377 15.7972 64.1685 15.3726 64.7068 14.7356V15.6152H66.3531V11.9754ZM60.2109 11.9754C60.2109 10.7015 61.0974 9.6399 62.5222 9.6399C63.8836 9.6399 64.8017 10.6408 64.8017 11.9754C64.8017 13.31 63.8836 14.311 62.5222 14.311C61.0974 14.311 60.2109 13.2494 60.2109 11.9754ZM18.0068 20.802C18.1018 20.8626 18.1968 20.9536 18.2918 21.0143C16.4871 22.1669 14.3025 22.8342 11.9912 22.8342C5.69068 22.8342 0.593262 17.9508 0.593262 11.9148C0.593262 5.87877 5.69068 0.995361 11.9912 0.995361C14.3341 0.995361 16.4871 1.66266 18.2918 2.81526C18.1968 2.87593 18.1018 2.96692 18.0068 3.02759C15.3156 5.27213 13.7959 8.48729 13.7959 11.9148C13.7959 15.3423 15.3156 18.5877 18.0068 20.802ZM26.0487 1.02569C23.7058 1.02569 21.5528 1.69299 19.7482 2.8456C19.8431 2.90626 19.9381 2.99725 20.0331 3.05792C22.7243 5.30246 24.244 8.51762 24.244 11.9451C24.244 15.3423 22.6926 18.5877 20.0331 20.8323C19.9381 20.893 19.8431 20.984 19.7482 21.0446C21.5528 22.1972 23.7374 22.8645 26.0487 22.8645C32.3492 22.8645 37.4467 17.9811 37.4467 11.9451C37.4467 5.9091 32.3492 1.02569 26.0487 1.02569ZM19.02 3.36123C18.8616 3.48256 18.735 3.57356 18.5767 3.69488C16.1705 5.69678 14.6507 8.63895 14.6507 11.9451C14.6507 15.2209 16.1705 18.1934 18.5767 20.1953C18.7033 20.3167 18.8616 20.438 19.02 20.529C19.1783 20.4077 19.3049 20.3167 19.4632 20.1953C21.8694 18.1934 23.3892 15.2513 23.3892 11.9451C23.3892 8.66928 21.8694 5.69678 19.4632 3.69488C19.3049 3.57356 19.1783 3.48256 19.02 3.36123Z" fill="white"/>
</svg>
