<svg width="77" height="23" viewBox="0 0 77 23" fill="none" xmlns="http://www.w3.org/2000/svg">
<path d="M68.7868 0.864258H54.1675C55.0191 5.69006 59.703 10.232 64.8126 10.232H76.4514C76.5933 9.8062 76.5933 9.09652 76.5933 8.67071C76.5933 4.41264 73.0449 0.864258 68.7868 0.864258Z" fill="white"/>
<path d="M55.4436 11.084V22.8646H62.5404V16.6195H68.7855C72.192 16.6195 75.1726 14.2066 76.1662 11.084H55.4436Z" fill="white"/>
<path d="M30.4639 0.864258V22.7223H36.7091C36.7091 22.7223 38.2703 22.7223 39.1219 21.161C43.38 12.7868 44.6574 10.232 44.6574 10.232H45.509V22.7223H52.6058V0.864258H46.3607C46.3607 0.864258 44.7994 1.0062 43.9477 2.42556C40.3994 9.66427 38.4123 13.3546 38.4123 13.3546H37.5606V0.864258H30.4639Z" fill="white"/>
<path d="M0.657471 22.8644V1.00633H7.75424C7.75424 1.00633 9.74136 1.00633 10.8768 4.12891C13.7156 12.3612 13.9994 13.4967 13.9994 13.4967C13.9994 13.4967 14.5672 11.5096 17.122 4.12891C18.2575 1.00633 20.2446 1.00633 20.2446 1.00633H27.3414V22.8644H20.2446V11.0838H19.393L15.4188 22.8644H12.2962L8.32202 11.0838H7.4704V22.8644H0.657471Z" fill="white"/>
</svg>
