<svg width="87" height="38" viewBox="0 0 87 38" fill="none" xmlns="http://www.w3.org/2000/svg">
<path fill-rule="evenodd" clip-rule="evenodd" d="M35.6778 18.0856H41.8268C41.4098 19.3017 40.4801 20.2653 39.3062 20.7023L42.0694 24.9818H37.6177L35.5762 20.9583H33.7146V24.9802H29.827V18.0856H35.6701V17.971C35.6728 18.0092 35.6754 18.0474 35.6778 18.0856ZM31.5397 31.2365C28.2636 35.2761 23.3509 37.8437 17.8592 37.8437C7.99585 37.8437 0 29.561 0 19.3437C0 9.12642 7.99585 0.843689 17.8592 0.843689C24.8319 0.843689 30.8713 4.98292 33.8124 11.0187H29.032C26.5326 7.41737 22.4544 5.07226 17.8477 5.07226C10.2437 5.07226 4.07947 11.4618 4.07947 19.3437C4.07947 27.2256 10.2437 33.6151 17.8477 33.6151C22.9484 33.6151 27.4012 30.7401 29.7803 26.4681H34.3461C34.3089 26.5603 34.271 26.6522 34.2324 26.7437H82.5833C85.7387 27.6687 85.1577 31.2365 85.1577 31.2365H31.5397V31.2365ZM24.2621 24.98V12.3401H28.1575V24.98H24.2621ZM29.2706 12.3401H37.8959C40.2008 12.3401 42.0695 14.2616 42.0695 16.6316C42.0695 16.9255 42.0403 17.2126 41.9857 17.4899H35.2874C32.2871 17.4899 29.7939 15.2695 29.2706 12.3401ZM14.9412 19.8092L16.5639 14.0014C16.8388 13.0176 17.711 12.3402 18.7026 12.3402H22.5929V24.9801H18.6975V17.5111H18.4193L16.1933 24.9801H13.411L11.185 17.5111H10.9068V24.9801H7.01159V12.3402H10.9017C11.8935 12.3402 12.7655 13.0176 13.0403 14.0014L14.663 19.8092H14.9412ZM79.2185 20.6651C79.2185 20.9294 78.4913 21.8364 78.0576 22.0743C77.6239 22.3121 77.3178 22.383 75.5191 22.383H73.4652V24.7615H71.4369V20.6651C71.4369 20.6651 78.5806 20.6651 79.2185 20.6651ZM70.2761 23.0437V24.7615H65.4413V16.9651H70.2761V18.6386H67.3421V19.96H69.6383V21.6778H67.3421V23.0437H70.2761ZM50.261 24.7615H48.2199L47.7097 23.1758H45.6686L45.1584 24.7615H43.1173L45.6686 16.9651H47.7097L50.261 24.7615ZM46.0513 21.458H47.327L46.6892 18.9473L46.0513 21.458ZM55.6573 24.6643C54.994 24.8625 53.5907 24.8889 52.9784 24.7039C52.3406 24.5189 51.3711 23.7789 51.0012 23.1975C50.5036 22.4443 50.3378 21.7175 50.4016 20.5282C50.4781 18.8764 51.1542 17.7928 52.5319 17.1321C53.3866 16.7225 55.1726 16.7357 56.0528 17.1586C56.4099 17.3303 56.8437 17.6211 57.035 17.8061L57.3794 18.1364L56.9202 18.85C56.6651 19.2464 56.4227 19.5636 56.3844 19.5636C56.3462 19.5636 56.0528 19.3786 55.7466 19.1671C55.0578 18.6782 54.4582 18.5593 53.7821 18.7707C52.3023 19.22 51.8431 21.4136 53.0039 22.4707C53.2463 22.6821 53.5907 22.9068 53.7693 22.9464C54.3306 23.0918 55.2108 22.9068 55.7466 22.5368C56.04 22.3518 56.3717 22.0923 56.3844 22.1187C56.5885 22.3962 57.2771 23.493 57.2771 23.5723C57.2771 23.744 56.2696 24.4661 55.6573 24.6643ZM62.9286 24.6643C62.2652 24.8625 60.862 24.8889 60.2497 24.7039C59.6118 24.5189 58.6423 23.7789 58.2724 23.1975C57.7749 22.4443 57.6091 21.7175 57.6729 20.5282C57.7494 18.8764 58.4255 17.7928 59.8032 17.1321C60.6579 16.7225 62.4438 16.7357 63.324 17.1586C63.6812 17.3303 64.1149 17.6211 64.3063 17.8061L64.6507 18.1364L64.1915 18.85C63.9363 19.2464 63.694 19.5636 63.6557 19.5636C63.6174 19.5636 63.324 19.3786 63.0179 19.1671C62.329 18.6782 61.7294 18.5593 61.0533 18.7707C59.5736 19.22 59.1144 21.4136 60.2752 22.4707C60.5176 22.6821 60.862 22.9068 61.0406 22.9464C61.6019 23.0918 62.4821 22.9068 63.0179 22.5368C63.3113 22.3518 63.6429 22.0923 63.6557 22.1187C63.8598 22.3962 64.5484 23.493 64.5484 23.5723C64.5484 23.744 63.5409 24.4661 62.9286 24.6643ZM77.6789 17.2238C78.6279 17.7154 79.1441 18.5605 79.2024 19.7161L79.2185 20.406H76.5883C74.1241 20.3715 73.8993 20.3542 73.4581 20.1818C72.201 19.7075 71.3269 18.733 70.9523 17.4222L70.8191 16.9651L74.0408 16.991L77.2626 17.0169L77.6789 17.2238ZM79.7287 16.7008H87V18.5508H84.4487V25.2901H82.2801V18.5508H79.7287V16.7008Z" fill="white"/>
</svg>
