<svg width="58" height="18" viewBox="0 0 58 18" fill="none" xmlns="http://www.w3.org/2000/svg">
<path d="M1.5136 17.7133H0.86798V10.0832H1.5136V17.7133ZM6.43513 10.0832C7.00172 10.0744 7.56568 10.1643 8.10316 10.3491C8.57361 10.5093 9.00626 10.7693 9.37324 11.1122C9.71757 11.4478 9.98634 11.8571 10.1607 12.3112C10.535 13.3319 10.535 14.4581 10.1607 15.4788C9.98353 15.9347 9.71106 16.3448 9.36265 16.68C8.99571 17.0229 8.56306 17.2829 8.09258 17.443C7.55577 17.6276 6.99255 17.7175 6.42667 17.709H3.72988V10.0788L6.43513 10.0832ZM4.37761 10.7154V17.0811H6.43513C6.91998 17.0926 7.40318 17.0189 7.86396 16.8631C8.25119 16.7277 8.60615 16.5092 8.90543 16.2222C9.18813 15.9418 9.40527 15.5989 9.54046 15.2194C9.82713 14.3723 9.82713 13.4503 9.54046 12.6033C9.40476 12.2234 9.18771 11.8799 8.90543 11.5983C8.60706 11.31 8.25183 11.0914 7.86396 10.9574C7.40298 10.8025 6.91993 10.7288 6.43513 10.7394L4.37761 10.7154ZM18.3696 9.99597C18.6796 9.9951 18.9886 10.0317 19.2904 10.105C19.5795 10.175 19.8595 10.2804 20.1244 10.4189C20.3789 10.5513 20.6158 10.7169 20.8293 10.9116C21.0378 11.1022 21.2188 11.3224 21.367 11.5656L20.8272 11.9362C20.7002 11.7361 20.5478 11.5543 20.3742 11.3956C20.1992 11.2359 20.0058 11.099 19.7984 10.9879C19.5837 10.8734 19.3562 10.7863 19.121 10.7285C18.8756 10.6683 18.624 10.6383 18.3717 10.6391C17.9509 10.6356 17.5333 10.7155 17.1419 10.8745C16.7729 11.0216 16.4366 11.2441 16.1533 11.5285C15.8686 11.8226 15.644 12.1725 15.4929 12.5575C15.1717 13.4132 15.1717 14.3615 15.4929 15.2172C15.6444 15.6032 15.8697 15.9539 16.1554 16.2484C16.4387 16.5328 16.775 16.7553 17.144 16.9024C17.5355 17.0614 17.953 17.1413 18.3738 17.1378C18.6246 17.1385 18.8747 17.1092 19.1189 17.0506C19.3535 16.995 19.5803 16.9093 19.7942 16.7955C20.0024 16.6848 20.1965 16.5478 20.3721 16.3879C20.5466 16.2285 20.6991 16.0451 20.8251 15.8429L21.3543 16.2418C21.2006 16.484 21.0162 16.704 20.806 16.8958C20.5934 17.0862 20.3588 17.2487 20.1075 17.3798C19.8461 17.5162 19.5696 17.6194 19.284 17.6872C18.4793 17.8758 17.6381 17.812 16.8688 17.5041C16.4193 17.3213 16.0098 17.0478 15.6643 16.6996C15.3209 16.3487 15.0501 15.9297 14.8684 15.4679C14.484 14.4544 14.484 13.329 14.8684 12.3155C15.0498 11.8529 15.3206 11.4331 15.6643 11.0816C16.0098 10.7335 16.4193 10.46 16.8688 10.2772C17.3462 10.0853 17.855 9.98977 18.3675 9.99597H18.3696ZM23.5621 13.484C23.6568 13.3223 23.7737 13.1754 23.9092 13.048C24.0359 12.9272 24.1784 12.8252 24.3326 12.745C24.4875 12.667 24.651 12.6084 24.8194 12.5706C24.9863 12.5329 25.1566 12.5139 25.3275 12.5139C25.6157 12.5109 25.9022 12.5596 26.1742 12.6578C26.4207 12.7471 26.6468 12.8873 26.8389 13.0698C27.025 13.2531 27.1695 13.4764 27.2622 13.7239C27.3657 13.9975 27.4167 14.2892 27.4125 14.5828V17.7264H26.8092V14.7594C26.8124 14.5224 26.7767 14.2865 26.7034 14.0618C26.6383 13.8648 26.5313 13.6853 26.3901 13.5364C26.2483 13.3901 26.077 13.2777 25.8884 13.2072C25.6712 13.127 25.4417 13.0879 25.211 13.0916C24.9875 13.0896 24.7656 13.131 24.557 13.2137C24.3594 13.2919 24.1794 13.4106 24.0278 13.5625C23.8762 13.7167 23.756 13.9005 23.6743 14.1032C23.5864 14.3214 23.5424 14.5558 23.5451 14.7921V17.7133H22.9418V9.86517H23.5451L23.5621 13.484ZM31.3667 12.5139C31.6841 12.5112 31.9986 12.5773 32.2896 12.708C32.568 12.8331 32.8182 13.0164 33.0241 13.2464C33.2368 13.488 33.4028 13.7692 33.5131 14.0748C33.6363 14.4122 33.6994 14.7696 33.6994 15.13C33.6994 15.1779 33.6994 15.2223 33.6994 15.263C33.6994 15.3037 33.6994 15.3444 33.6994 15.3851H29.5124C29.5277 15.6604 29.5931 15.9303 29.705 16.1808C29.8071 16.4044 29.9509 16.6052 30.1283 16.7716C30.3012 16.9334 30.5033 17.0586 30.7232 17.14C30.9533 17.2251 31.1962 17.2679 31.4408 17.2664C31.7628 17.272 32.0821 17.205 32.3764 17.0702C32.6538 16.9384 32.9067 16.7577 33.1236 16.5361L33.4475 16.9721C33.3004 17.126 33.1379 17.2634 32.9627 17.382C32.8053 17.4877 32.637 17.5755 32.461 17.6436C32.2928 17.7086 32.1182 17.7546 31.9403 17.7809C31.7628 17.806 31.5839 17.8184 31.4048 17.818C31.0605 17.8216 30.7189 17.7557 30.3993 17.624C30.1012 17.5013 29.8309 17.3165 29.6055 17.0811C29.3772 16.8391 29.1999 16.5511 29.0848 16.2353C28.9542 15.8878 28.8895 15.5178 28.8943 15.1452C28.8906 14.7808 28.9546 14.419 29.0827 14.0792C29.1999 13.7669 29.3762 13.4816 29.6013 13.2399C29.8234 13.0044 30.0899 12.8182 30.3845 12.6927C30.6954 12.562 31.0288 12.4975 31.3646 12.503L31.3667 12.5139ZM31.3667 13.0655C31.1283 13.0622 30.8916 13.1074 30.6702 13.1985C30.4648 13.2846 30.2773 13.4104 30.1178 13.5691C29.9559 13.7315 29.8239 13.9228 29.7283 14.1337C29.6255 14.3607 29.5604 14.6039 29.5356 14.8531H33.0855C33.0674 14.6019 33.008 14.3557 32.9098 14.125C32.821 13.9144 32.6946 13.7229 32.5373 13.5604C32.2228 13.2392 31.7967 13.061 31.354 13.0655H31.3667ZM37.3932 12.5139C37.7459 12.5107 38.0958 12.5804 38.4219 12.7189C38.7308 12.8503 39.0066 13.0523 39.2284 13.3096L38.8368 13.7282C38.6485 13.5326 38.4268 13.3744 38.1827 13.2617C37.9283 13.1485 37.6534 13.092 37.3762 13.096C37.1153 13.0935 36.8566 13.1461 36.6163 13.2508C36.386 13.3524 36.178 13.5007 36.0045 13.6868C35.8289 13.8749 35.6914 14.0973 35.6002 14.3408C35.406 14.8735 35.406 15.4606 35.6002 15.9933C35.7788 16.4852 36.1464 16.8795 36.6163 17.0833C36.8566 17.188 37.1153 17.2406 37.3762 17.2381C37.6576 17.2412 37.9363 17.1817 38.1933 17.0637C38.4374 16.9507 38.6603 16.7942 38.8516 16.6015L39.2284 17.0266C39.0041 17.2831 38.7272 17.4849 38.4177 17.6174C38.0923 17.7561 37.7432 17.8258 37.391 17.8223C37.0386 17.8268 36.6888 17.7586 36.3623 17.6218C35.7508 17.3658 35.2686 16.862 35.0287 16.2287C34.778 15.552 34.778 14.8039 35.0287 14.1272C35.2676 13.4928 35.7501 12.988 36.3623 12.7319C36.6842 12.5865 37.0311 12.5087 37.3826 12.503L37.3932 12.5139ZM41.2563 14.7594H42.0649L44.1605 12.5968H44.9226L42.5518 15.0166L44.9649 17.7242H44.1986L42.0649 15.3262H41.2563V17.7242H40.6424V9.87607H41.2457L41.2563 14.7594ZM8.76149 7.37119V4.10112C8.76149 2.86721 7.99732 2.03661 6.76747 2.02571C6.05411 1.97821 5.3721 2.334 4.98725 2.95441C4.63649 2.35229 3.99406 1.99596 3.31287 2.02571C2.72042 1.99625 2.15695 2.29137 1.83112 2.80181V2.1478H0.728271V7.36683H1.8417V4.47827C1.8417 3.57137 2.32856 3.09176 3.08214 3.09176C3.83572 3.09176 4.18499 3.58227 4.18499 4.46737V7.37119H5.29842V4.47827C5.29842 3.57137 5.80645 3.09176 6.53886 3.09176C7.27127 3.09176 7.65229 3.58227 7.65229 4.46737V7.37119H8.76149ZM25.2364 2.15216H23.4351V0.56944H22.3322V2.15216H21.3035V3.18986H22.3322V5.57047C22.3322 6.78258 22.7873 7.50418 24.0913 7.50418C24.5783 7.5058 25.0559 7.36602 25.4693 7.10087L25.1518 6.12856C24.8559 6.31007 24.5202 6.41133 24.1759 6.42287C23.6256 6.42287 23.4435 6.07406 23.4435 5.55085V3.18986H25.2449L25.2364 2.15216ZM34.6413 2.02135C34.0936 2.00491 33.581 2.29856 33.3056 2.78655V2.15216H32.2134V7.37119H33.3162V4.44557C33.3162 3.57355 33.6761 3.10266 34.3979 3.10266C34.634 3.09914 34.8685 3.14359 35.088 3.23346L35.4267 2.16306C35.1746 2.07022 34.909 2.0223 34.6413 2.02135ZM20.4271 2.56855C19.8027 2.1865 19.0848 1.99732 18.359 2.02353C17.0762 2.02353 16.2422 2.65575 16.2422 3.69345C16.2422 4.54585 16.8561 5.06906 17.9907 5.23256L18.5093 5.30887C19.1126 5.39607 19.4005 5.55957 19.4005 5.85388C19.4005 6.25719 18.9983 6.48609 18.2447 6.48609C17.6367 6.50598 17.0401 6.31395 16.5513 5.94108L16.0327 6.82618C16.6749 7.28864 17.4444 7.52633 18.2278 7.50418C19.6905 7.50418 20.5393 6.79348 20.5393 5.80156C20.5393 4.88376 19.8704 4.40415 18.7697 4.24064L18.251 4.16434C17.7748 4.09894 17.3916 4.00084 17.3916 3.65203C17.3916 3.27052 17.7515 3.03944 18.3569 3.03944C18.9116 3.04788 19.455 3.20168 19.936 3.48635L20.4271 2.56855ZM49.9648 2.02353C49.417 2.00709 48.9044 2.30074 48.6291 2.78873V2.15216H47.5368V7.37119H48.6397V4.44557C48.6397 3.57355 48.9995 3.10266 49.7213 3.10266C49.9575 3.09914 50.192 3.14359 50.4114 3.23346L50.7501 2.16306C50.498 2.07022 50.2325 2.0223 49.9648 2.02135V2.02353ZM35.7569 4.76385C35.7569 6.34657 36.828 7.50418 38.46 7.50418C39.1218 7.5379 39.7719 7.3155 40.2826 6.88068L39.7534 5.96288C39.369 6.26133 38.9011 6.42348 38.4198 6.42505C37.5392 6.42505 36.8936 5.75796 36.8936 4.75513C36.8936 3.75231 37.5413 3.09612 38.4198 3.08522C38.899 3.09055 39.3637 3.25493 39.7449 3.55393L40.2741 2.63613C39.7634 2.20131 39.1133 1.97891 38.4516 2.01263C36.8195 2.01263 35.7484 3.17024 35.7484 4.75295L35.7569 4.76385ZM46.0826 4.76385V2.1478H44.9818V2.78219C44.6003 2.27515 44.0039 1.98995 43.3816 2.01699C41.9612 2.01699 40.8414 3.1637 40.8414 4.75731C40.8414 6.35093 41.9548 7.49764 43.3816 7.49764C44.0039 7.52468 44.6003 7.23948 44.9818 6.73244V7.36465H46.0847L46.0826 4.76385ZM41.9802 4.76385C41.9802 3.84605 42.5624 3.09394 43.517 3.09394C44.4294 3.09394 45.0432 3.81553 45.0432 4.76385C45.0432 5.71218 44.4294 6.43377 43.517 6.43377C42.5624 6.43377 41.9802 5.67947 41.9802 4.76385ZM28.6826 2.02135C27.2008 2.02135 26.1594 3.13536 26.1594 4.76167C26.1594 6.42069 27.241 7.502 28.7567 7.502C29.5134 7.5293 30.2534 7.26853 30.8354 6.7695L30.2956 5.928C29.8746 6.27491 29.353 6.46677 28.8138 6.47301C28.1026 6.47301 27.457 6.13511 27.2982 5.1955H31.0618C31.0724 5.0538 31.083 4.9121 31.083 4.75949C31.083 3.13318 30.0966 2.01917 28.6762 2.01917L28.6826 2.02135ZM28.6614 3.03726C29.3727 3.03726 29.8278 3.49507 29.9442 4.30386H27.3046C27.421 3.54957 27.8655 3.03726 28.6508 3.03726H28.6614ZM56.3236 4.76167V0.0571289H55.2208V2.78655C54.8392 2.27951 54.2428 1.99431 53.6205 2.02135C52.2001 2.02135 51.0803 3.16806 51.0803 4.76167C51.0803 6.35529 52.1937 7.502 53.6205 7.502C54.2428 7.52904 54.8392 7.24384 55.2208 6.7368V7.36901H56.3236V4.76167ZM57.6127 6.8894C57.6563 6.88923 57.6995 6.89812 57.7397 6.91556C57.7784 6.93257 57.8136 6.95698 57.8435 6.9875C57.873 7.01746 57.8967 7.05298 57.9133 7.09215C57.9477 7.17424 57.9477 7.2673 57.9133 7.34939C57.8967 7.38853 57.873 7.42405 57.8435 7.45403C57.8135 7.48444 57.7783 7.50883 57.7397 7.52598C57.6996 7.54359 57.6564 7.5525 57.6127 7.55214C57.4808 7.55383 57.3607 7.47395 57.3079 7.34939C57.2738 7.26724 57.2738 7.17429 57.3079 7.09215C57.341 7.0121 57.4034 6.94867 57.4815 6.91556C57.5198 6.89917 57.5607 6.89029 57.6021 6.8894H57.6127ZM57.6127 7.47801C57.6462 7.47856 57.6793 7.47187 57.7101 7.4584C57.7393 7.44539 57.7658 7.42691 57.7884 7.40389C57.8864 7.30265 57.8864 7.13888 57.7884 7.03765C57.7659 7.01451 57.7393 6.99601 57.7101 6.98314C57.6793 6.96979 57.6461 6.96311 57.6127 6.96352C57.5786 6.96306 57.5448 6.96973 57.5132 6.98314C57.4366 7.01685 57.3811 7.08741 57.365 7.17162C57.3489 7.25583 57.3743 7.34278 57.4328 7.40389C57.456 7.42722 57.4833 7.44572 57.5132 7.4584C57.5413 7.47123 57.5715 7.47862 57.6021 7.4802L57.6127 7.47801ZM57.6318 7.06381C57.6635 7.06152 57.695 7.07078 57.7207 7.08997C57.7418 7.10735 57.7536 7.13408 57.7524 7.16191C57.7532 7.18577 57.744 7.20881 57.727 7.22513C57.7076 7.24291 57.6831 7.25363 57.6572 7.25565L57.7546 7.37119H57.6784L57.5873 7.25565H57.5577V7.37119H57.4942V7.06381H57.6318ZM57.5577 7.12049V7.20333H57.6318C57.6449 7.20727 57.6589 7.20727 57.672 7.20333C57.6818 7.19651 57.6874 7.18495 57.6868 7.17281C57.6874 7.16067 57.6818 7.14911 57.672 7.14229C57.6589 7.13835 57.6449 7.13835 57.6318 7.14229L57.5577 7.12049ZM52.2213 4.75949C52.2213 3.84169 52.8034 3.08958 53.7581 3.08958C54.6704 3.08958 55.2843 3.81117 55.2843 4.75949C55.2843 5.70782 54.6704 6.42941 53.7581 6.42941C52.8034 6.42941 52.2213 5.67511 52.2213 4.75949ZM14.987 4.75949V2.14344H13.8651V2.77783C13.4835 2.27079 12.8871 1.98559 12.2648 2.01263C10.8444 2.01263 9.72462 3.15934 9.72462 4.75295C9.72462 6.34657 10.8381 7.49328 12.2648 7.49328C12.8871 7.52032 13.4835 7.23512 13.8651 6.72808V7.36029H14.9679L14.987 4.75949ZM10.8846 4.75949C10.8846 3.84169 11.4667 3.08958 12.4214 3.08958C13.3337 3.08958 13.9476 3.81117 13.9476 4.75949C13.9476 5.70782 13.3337 6.42941 12.4214 6.42941C11.454 6.42505 10.8719 5.67947 10.8719 4.76167L10.8846 4.75949ZM45.7312 17.4561H45.6359V17.7133H45.5894V17.4561H45.4941V17.4103H45.7312V17.4561ZM46.0953 17.7133H46.0402V17.4648L45.9535 17.6828H45.9027L45.8159 17.4648V17.7112H45.7693V17.4081H45.8413L45.9259 17.6261L46.0106 17.4081H46.0826L46.0953 17.7133Z" fill="white"/>
</svg>
