<svg width="72" height="23" viewBox="0 0 72 23" fill="none" xmlns="http://www.w3.org/2000/svg">
<path d="M66.8384 1.1786H62.3336C60.9717 1.1786 59.9241 1.59765 59.2956 2.95956L50.7051 22.55H56.7813C56.7813 22.55 57.8289 19.931 58.0384 19.3024C58.667 19.3024 64.6384 19.3024 65.4765 19.3024C65.686 20.0357 66.2098 22.4453 66.2098 22.4453H71.6575L66.8384 1.1786ZM59.7146 14.9024C60.2384 13.6453 62.0194 8.93098 62.0194 8.93098C62.0194 9.03575 62.5432 7.67384 62.7527 6.94051L63.1717 8.82622C63.1717 8.82622 64.3241 13.9596 64.5336 15.0072H59.7146V14.9024Z" fill="white"/>
<path d="M51.1239 15.5312C51.1239 19.9312 47.143 22.8645 40.962 22.8645C38.343 22.8645 35.8287 22.3407 34.4668 21.7121L35.3049 16.8931L36.0382 17.2074C37.9239 18.0455 39.1811 18.3598 41.4858 18.3598C43.162 18.3598 44.943 17.7312 44.943 16.2645C44.943 15.3217 44.2097 14.6931 41.9049 13.6455C39.7049 12.5979 36.7716 10.9217 36.7716 7.88357C36.7716 3.69309 40.8573 0.864517 46.6192 0.864517C48.8192 0.864517 50.7049 1.28356 51.8573 1.80737L51.0192 6.4169L50.6001 5.99785C49.5525 5.5788 48.1906 5.15976 46.2001 5.15976C44.0001 5.26452 42.9525 6.20737 42.9525 7.04547C42.9525 7.98833 44.2097 8.72166 46.2001 9.66452C49.5525 11.2359 51.1239 13.0169 51.1239 15.5312Z" fill="white"/>
<path d="M0 1.38842L0.104762 0.969376H9.11428C10.3714 0.969376 11.3143 1.38842 11.6286 2.75033L13.619 12.1789C11.6286 7.15033 7.01905 3.06461 0 1.38842Z" fill="white"/>
<path d="M26.2953 1.17901L17.181 22.4457H11.0001L5.76196 4.63615C9.53339 7.04568 12.6762 10.8171 13.8286 13.4362L14.4572 15.6362L20.1143 1.07425H26.2953V1.17901Z" fill="white"/>
<path d="M28.7048 1.07448H34.4667L30.8 22.4459H25.0381L28.7048 1.07448Z" fill="white"/>
</svg>
