<svg width="87" height="37" viewBox="0 0 87 37" fill="none" xmlns="http://www.w3.org/2000/svg">
<path fill-rule="evenodd" clip-rule="evenodd" d="M30.6594 28.5091C29.0216 24.4213 26.1033 21.558 20.0883 20.0388L20.1592 19.687H27.2569C28.2033 19.7214 28.984 20.0388 29.2443 21.1077L30.8028 28.8718C30.8038 28.8745 30.8048 28.8771 30.8058 28.8798L31.255 31.2244L35.5608 19.6938H40.2454L33.3133 36.5622L28.6291 36.5758L25.0565 23.1695C26.5138 23.6805 29.3513 25.4051 30.6594 28.5091ZM6.46132 15.7219H3.62231L0.380859 1.17088L3.4801 0.65383L5.7277 12.039L11.4057 0.798366H14.3865L6.46132 15.7219ZM14.4103 10.9634C14.221 12.9909 15.1673 13.8669 16.7763 13.8669C18.1247 13.8669 19.3076 13.377 20.5851 12.5772V14.6047C19.3313 15.3769 17.8883 15.8736 16.1849 15.8736C13.2513 15.8736 11.3111 14.2182 11.9025 10.4667C12.423 7.08767 14.789 5.03941 17.5096 5.03941C20.6564 5.03941 21.7207 7.38433 21.2478 10.3357C21.224 10.5565 21.1531 10.8117 21.1293 10.9634H14.4103ZM14.6943 9.34994H18.858C18.9526 7.73609 18.4321 6.83254 17.1784 6.83254C16.1374 6.83254 15.1673 7.64625 14.6943 9.34994ZM24.6073 15.6596H22.0048L23.6134 5.25342H25.8372V7.34959C26.7127 6.143 27.9193 5.12925 29.5517 5.03941L29.5754 7.60513C27.9193 7.71532 26.4524 8.57056 25.5298 9.69451L24.6073 15.6596ZM29.5283 15.6596L31.1607 5.25342H33.7628L32.1304 15.6596H29.5283ZM31.3972 2.05367C31.539 1.17088 32.3435 0.543232 33.1952 0.543232C34.0469 0.543232 34.662 1.17088 34.5198 2.05367C34.378 2.90851 33.5973 3.5154 32.7456 3.5154C31.8702 3.5154 31.2788 2.90851 31.3972 2.05367ZM39.3937 3.72941L39.1568 5.25342H41.1679V7.37036H38.8257L37.5482 15.6596H34.9694L36.2469 7.37036H34.7329L35.0641 5.25342H36.5781L36.8621 3.47428C37.217 1.17088 38.8257 0.302073 40.9786 0.302073C41.4282 0.302073 41.7831 0.350384 42.0196 0.391509L42.0434 2.50165C41.7831 2.46053 41.4044 2.41222 40.9786 2.41222C40.0798 2.41222 39.5355 2.8051 39.3937 3.72941ZM41.0024 15.6596L42.611 5.25342H45.2373L43.6049 15.6596H41.0024ZM42.8713 2.05367C43.0135 1.17088 43.8176 0.543232 44.6693 0.543232C45.5209 0.543232 46.1127 1.17088 45.9943 2.05367C45.8525 2.90851 45.0717 3.5154 44.2201 3.5154C43.3446 3.5154 42.7532 2.90851 42.8713 2.05367ZM48.5968 10.9634C48.4075 12.9909 49.3538 13.8669 50.9625 13.8669C52.3113 13.8669 53.4941 13.377 54.7716 12.5772V14.6047C53.5178 15.3769 52.0744 15.8736 50.3711 15.8736C47.4374 15.8736 45.4976 14.2182 46.089 10.4667C46.6095 7.08767 48.9751 5.03941 51.7194 5.03941C54.8662 5.03941 55.9073 7.38433 55.4577 10.3357C55.4101 10.5565 55.363 10.8117 55.3392 10.9634H48.5968ZM48.8805 9.34994H53.0683C53.1392 7.73609 52.6186 6.83254 51.3649 6.83254C50.3239 6.83254 49.3538 7.64625 48.8805 9.34994ZM63.0521 15.6596V14.2182C62.1767 15.101 61.041 15.8736 59.5979 15.8736C57.3975 15.8736 55.8835 14.2598 56.4277 10.7426C57.0429 6.87406 59.4557 5.15001 61.8927 5.15001C62.8865 5.15001 63.6673 5.3225 64.2587 5.53611L65.0394 0.515682L67.7125 0.108826L65.2997 15.6596H63.0521ZM61.9636 7.21863C60.5914 7.21863 59.4086 8.31543 59.0536 10.5981C58.7463 12.6184 59.4795 13.5702 60.6152 13.5702C61.5853 13.5702 62.4132 13.0116 63.241 12.1424L63.9275 7.66701C63.3124 7.37036 62.839 7.21863 61.9636 7.21863ZM70.1023 15.232L71.8056 4.19136L73.8401 3.88113L73.1069 8.66C73.6983 8.13616 74.5028 7.6187 75.5201 7.6187C77.1996 7.6187 78.3115 8.85324 77.9095 11.4944C77.4599 14.3979 75.6381 15.7562 73.2725 15.7562C72.0421 15.7562 71.0486 15.563 70.1023 15.232ZM72.8229 10.3705L72.2786 13.9427C72.6573 14.0945 72.9413 14.1564 73.4856 14.1564C74.7393 14.1564 75.6147 13.4117 75.8987 11.6118C76.1352 10.0946 75.6147 9.34275 74.7393 9.34275C74.077 9.34275 73.4143 9.78434 72.8229 10.3705ZM82.5702 16.0804C81.553 18.0253 80.5591 18.625 79.0214 18.625C78.6664 18.625 78.4771 18.5974 78.3115 18.5423L78.2881 16.9285C78.5484 16.9976 78.832 17.0391 79.2107 17.0391C79.7784 17.0391 80.2755 16.784 80.6066 16.2114L80.8669 15.6872L79.2107 7.92894L81.2927 7.66701L82.2624 13.2736L84.9125 7.7844H86.8523L82.5702 16.0804ZM42.0196 19.6803H46.4201L43.6758 36.5898H39.2753L42.0196 19.6803ZM55.6941 19.3904C57.4212 19.3904 58.7934 19.7561 59.6451 20.0939L59.0536 23.756L58.6516 23.5696C57.8471 23.225 56.806 22.894 55.363 22.9215C53.6359 22.9215 52.8318 23.673 52.8318 24.3765C52.8318 25.1694 53.7781 25.6869 55.3159 26.473C57.8471 27.6796 59.0299 29.135 59.0065 31.0587C58.9827 34.569 55.9782 36.8377 51.3412 36.8377C49.3776 36.8173 47.4611 36.4105 46.4439 35.9346L47.0591 32.1555L47.6267 32.4242C49.0698 33.0518 49.9924 33.307 51.767 33.307C53.0445 33.307 54.3929 32.7899 54.3929 31.6588C54.4166 30.9141 53.8252 30.3831 52.1219 29.5554C50.4419 28.7485 48.2419 27.397 48.2657 24.9626C48.289 21.6802 51.3411 19.3904 55.6941 19.3904ZM67.5469 19.701H70.954L74.5262 36.5965H70.4334C70.4334 36.5965 70.0314 34.6449 69.8892 34.0588C69.2506 34.0588 64.7554 34.052 64.2587 34.052C64.0694 34.5068 63.3124 36.5965 63.3124 36.5965H58.6987L65.2522 21.1009C65.7018 19.9973 66.4825 19.701 67.5469 19.701ZM67.2633 25.8662C67.2633 25.8662 65.8911 29.6177 65.5124 30.5899H69.1797C68.9904 29.7487 68.1621 25.7144 68.1621 25.7144L67.8547 24.2523C67.6416 24.8867 67.2395 25.9145 67.2633 25.8662Z" fill="white"/>
</svg>
