<svg width="20" height="18" viewBox="0 0 20 18" fill="none" xmlns="http://www.w3.org/2000/svg">
<path d="M18.35 3.70996C18.35 5.36996 17.25 6.77999 15.74 7.23999C15.91 6.68999 16 6.1 16 5.5C16 3.31 14.82 1.3901 13.07 0.350098C13.55 0.130098 14.08 0 14.65 0C16.69 0 18.35 1.65996 18.35 3.70996ZM17.6 8.30005C17.18 8.18005 16.72 8.23995 16.35 8.44995C15.91 8.68995 15.44 8.83011 14.96 8.86011C14.76 9.16011 14.53 9.44996 14.26 9.70996C16.19 10.34 17.6 12.01 17.92 14H18.61C19.07 14 19.49 13.7601 19.7 13.3701C19.9 13.0001 20 12.5799 20 12.1599V11.45C20 9.95995 19.01 8.67005 17.6 8.30005ZM6.92999 0.350098C6.44999 0.130098 5.91998 0 5.34998 0C3.30998 0 1.65002 1.65996 1.65002 3.70996C1.65002 5.36996 2.75001 6.77999 4.26001 7.23999C4.09001 6.68999 4 6.1 4 5.5C4 3.31 5.17999 1.3901 6.92999 0.350098ZM5.73999 9.70996C5.46999 9.44996 5.23998 9.16011 5.03998 8.86011C4.55998 8.83011 4.09002 8.68995 3.65002 8.44995C3.28002 8.23995 2.82002 8.18005 2.40002 8.30005C0.990024 8.67005 0 9.95995 0 11.45V12.1599C0 12.5799 0.0999878 13.0001 0.299988 13.3701C0.509988 13.7601 0.930005 14 1.38 14H2.08002C2.40002 12.01 3.80999 10.34 5.73999 9.70996ZM13.58 11.0701C13.41 11.0301 13.23 11 13.05 11C12.71 11 12.36 11.09 12.06 11.26C11.42 11.61 10.71 11.79 10 11.79C9.29 11.79 8.58 11.61 7.94 11.26C7.64 11.09 7.29001 11 6.95001 11C6.77001 11 6.58998 11.0301 6.41998 11.0701C4.69998 11.5301 3.5 13.0999 3.5 14.8999V15.77C3.5 16.28 3.63 16.79 3.87 17.23C4.12 17.71 4.61999 18 5.17999 18H14.82C15.38 18 15.88 17.71 16.13 17.23C16.37 16.79 16.5 16.28 16.5 15.77V14.8999C16.5 13.0999 15.3 11.5301 13.58 11.0701ZM14.5 5.5C14.5 3.015 12.485 1 10 1C7.515 1 5.5 3.015 5.5 5.5C5.5 7.985 7.515 10 10 10C12.485 10 14.5 7.985 14.5 5.5Z" fill="white"/>
</svg>
