<svg width="95" height="24" viewBox="0 0 95 24" fill="none" xmlns="http://www.w3.org/2000/svg">
<path d="M9.2 18.264C7.232 18.264 5.568 17.904 4.208 17.184C2.864 16.464 1.84 15.456 1.136 14.16C0.448 12.864 0.104 11.352 0.104 9.624C0.104 7.832 0.48 6.28 1.232 4.968C2 3.64 3.096 2.616 4.52 1.896C5.944 1.176 7.656 0.816 9.656 0.816C10.888 0.816 11.976 0.96 12.92 1.248C13.88 1.536 14.704 1.952 15.392 2.496L14.024 5.88C13.528 5.544 13.056 5.288 12.608 5.112C12.176 4.92 11.728 4.784 11.264 4.704C10.816 4.624 10.296 4.584 9.704 4.584C8.04 4.584 6.792 5.016 5.96 5.88C5.144 6.728 4.736 7.976 4.736 9.624C4.736 11.256 5.112 12.488 5.864 13.32C6.616 14.152 7.808 14.568 9.44 14.568C9.936 14.568 10.472 14.52 11.048 14.424C11.64 14.328 12.24 14.184 12.848 13.992L12.056 15.576V11.544H8.552V8.472H15.68V16.944C14.768 17.376 13.744 17.704 12.608 17.928C11.488 18.152 10.352 18.264 9.2 18.264ZM24.752 18.264C22.544 18.264 20.824 17.696 19.592 16.56C18.376 15.424 17.768 13.864 17.768 11.88C17.768 10.648 18.024 9.552 18.536 8.592C19.048 7.632 19.768 6.888 20.696 6.36C21.624 5.816 22.712 5.544 23.96 5.544C25.192 5.544 26.216 5.816 27.032 6.36C27.864 6.888 28.488 7.624 28.904 8.568C29.32 9.496 29.528 10.576 29.528 11.808V12.72H21.344V10.704H26.384L25.976 11.04C25.976 10.128 25.8 9.456 25.448 9.024C25.112 8.576 24.632 8.352 24.008 8.352C23.288 8.352 22.736 8.624 22.352 9.168C21.984 9.696 21.8 10.496 21.8 11.568V12C21.8 13.072 22.064 13.856 22.592 14.352C23.12 14.848 23.88 15.096 24.872 15.096C25.512 15.096 26.112 15.024 26.672 14.88C27.248 14.736 27.792 14.504 28.304 14.184L29.408 16.968C28.8 17.384 28.096 17.704 27.296 17.928C26.496 18.152 25.648 18.264 24.752 18.264ZM31.5622 18V9.12C31.5622 8.576 31.5462 8.024 31.5142 7.464C31.4822 6.904 31.4342 6.352 31.3702 5.808H35.4982L35.7382 7.92H35.4742C35.8742 7.152 36.4422 6.568 37.1782 6.168C37.9142 5.752 38.7462 5.544 39.6742 5.544C41.0982 5.544 42.1622 5.968 42.8662 6.816C43.5862 7.648 43.9462 8.952 43.9462 10.728V18H39.6742V10.92C39.6742 10.136 39.5382 9.592 39.2662 9.288C38.9942 8.968 38.6022 8.808 38.0902 8.808C37.4182 8.808 36.8742 9.032 36.4582 9.48C36.0422 9.912 35.8342 10.488 35.8342 11.208V18H31.5622ZM52.9473 18.264C50.7393 18.264 49.0193 17.696 47.7873 16.56C46.5713 15.424 45.9633 13.864 45.9633 11.88C45.9633 10.648 46.2193 9.552 46.7313 8.592C47.2433 7.632 47.9633 6.888 48.8913 6.36C49.8193 5.816 50.9073 5.544 52.1553 5.544C53.3873 5.544 54.4113 5.816 55.2273 6.36C56.0593 6.888 56.6833 7.624 57.0993 8.568C57.5153 9.496 57.7233 10.576 57.7233 11.808V12.72H49.5393V10.704H54.5793L54.1713 11.04C54.1713 10.128 53.9953 9.456 53.6433 9.024C53.3073 8.576 52.8273 8.352 52.2033 8.352C51.4833 8.352 50.9313 8.624 50.5473 9.168C50.1793 9.696 49.9953 10.496 49.9953 11.568V12C49.9953 13.072 50.2593 13.856 50.7873 14.352C51.3153 14.848 52.0753 15.096 53.0673 15.096C53.7073 15.096 54.3073 15.024 54.8673 14.88C55.4433 14.736 55.9873 14.504 56.4993 14.184L57.6033 16.968C56.9953 17.384 56.2913 17.704 55.4913 17.928C54.6913 18.152 53.8433 18.264 52.9473 18.264ZM58.9895 23.4C58.6055 23.4 58.2215 23.376 57.8375 23.328C57.4535 23.28 57.0855 23.184 56.7335 23.04V19.752C56.9735 19.832 57.2055 19.888 57.4295 19.92C57.6375 19.952 57.8615 19.968 58.1015 19.968C58.5655 19.968 58.9495 19.832 59.2535 19.56C59.5735 19.304 59.7335 18.832 59.7335 18.144V5.808H64.0055V18.288C64.0055 19.968 63.6055 21.24 62.8055 22.104C62.0215 22.968 60.7495 23.4 58.9895 23.4ZM59.6135 4.08V0.24H64.1015V4.08H59.6135ZM72.7676 18.264C71.4076 18.264 70.2316 18.008 69.2396 17.496C68.2476 16.984 67.4796 16.256 66.9356 15.312C66.3916 14.352 66.1196 13.216 66.1196 11.904C66.1196 10.576 66.3916 9.44 66.9356 8.496C67.4796 7.552 68.2476 6.824 69.2396 6.312C70.2316 5.8 71.4076 5.544 72.7676 5.544C74.1116 5.544 75.2796 5.8 76.2716 6.312C77.2636 6.824 78.0316 7.56 78.5756 8.52C79.1196 9.464 79.3916 10.592 79.3916 11.904C79.3916 13.2 79.1196 14.328 78.5756 15.288C78.0316 16.248 77.2636 16.984 76.2716 17.496C75.2796 18.008 74.1116 18.264 72.7676 18.264ZM72.7676 15.096C73.4716 15.096 74.0316 14.848 74.4476 14.352C74.8636 13.84 75.0716 13.024 75.0716 11.904C75.0716 10.784 74.8636 9.976 74.4476 9.48C74.0316 8.968 73.4716 8.712 72.7676 8.712C72.0476 8.712 71.4796 8.968 71.0636 9.48C70.6476 9.976 70.4396 10.784 70.4396 11.904C70.4396 13.024 70.6476 13.84 71.0636 14.352C71.4796 14.848 72.0476 15.096 72.7676 15.096ZM89.4761 18.264C88.5481 18.264 87.7001 18.04 86.9321 17.592C86.1801 17.144 85.6841 16.552 85.4441 15.816H85.7081V18H81.4841V0.335999H85.7561V7.872H85.4681C85.7401 7.168 86.2441 6.608 86.9801 6.192C87.7321 5.76 88.5641 5.544 89.4761 5.544C90.5321 5.544 91.4601 5.8 92.2601 6.312C93.0761 6.824 93.7081 7.56 94.1561 8.52C94.6201 9.48 94.8521 10.616 94.8521 11.928C94.8521 13.256 94.6201 14.392 94.1561 15.336C93.7081 16.28 93.0761 17.008 92.2601 17.52C91.4601 18.016 90.5321 18.264 89.4761 18.264ZM88.1321 15.096C88.8361 15.096 89.4121 14.848 89.8601 14.352C90.3241 13.856 90.5561 13.048 90.5561 11.928C90.5561 10.808 90.3241 9.992 89.8601 9.48C89.4121 8.968 88.8361 8.712 88.1321 8.712C87.4121 8.712 86.8281 8.968 86.3801 9.48C85.9321 9.976 85.7081 10.784 85.7081 11.904C85.7081 13.024 85.9321 13.84 86.3801 14.352C86.8281 14.848 87.4121 15.096 88.1321 15.096Z" fill="white"/>
</svg>
