<svg width="24" height="24" viewBox="0 0 24 24" fill="none" xmlns="http://www.w3.org/2000/svg">
<path d="M17.8002 20V19V20ZM6.2002 20V21V20ZM21.0002 16.8H22.0002H21.0002ZM20.7822 18.908L21.6732 19.362L20.7822 18.908ZM19.9078 19.782L20.3618 20.673L19.9078 19.782ZM19.9078 6.21799L20.3618 5.32698V5.32698L19.9078 6.21799ZM21.0002 9.20002H20.0002V9.20002L21.0002 9.20002ZM20.7822 7.09204L19.8912 7.54603L20.7822 7.09204ZM3.21799 18.908L4.10899 18.454H4.10899L3.21799 18.908ZM4.0918 19.782L4.54579 18.891H4.54579L4.0918 19.782ZM11.2931 6.7071C11.6837 7.09763 12.3168 7.09763 12.7073 6.7071C13.0979 6.31658 13.0979 5.68342 12.7073 5.29289L11.2931 6.7071ZM10.2168 4.29474L10.7393 3.4421V3.4421L10.2168 4.29474ZM9.63875 4.05526L9.8722 3.08289L9.63875 4.05526ZM4 16.8V6H2V16.8H4ZM3 7H17.8V5H3V7ZM17.8002 19H6.2002V21H17.8002V19ZM20.0002 16.8C20.0002 17.3765 19.9994 17.7488 19.9763 18.0322C19.9541 18.3038 19.9164 18.4045 19.8912 18.454L21.6732 19.362C21.866 18.9836 21.9373 18.5904 21.9696 18.195C22.001 17.8113 22.0002 17.3435 22.0002 16.8H20.0002ZM17.8002 21C18.3438 21 18.8115 21.0008 19.1951 20.9694C19.5904 20.9371 19.9835 20.8657 20.3618 20.673L19.4538 18.891C19.4043 18.9162 19.3036 18.9539 19.0321 18.9761C18.7489 18.9992 18.3767 19 17.8002 19V21ZM19.8912 18.454C19.7956 18.6417 19.6424 18.7949 19.4538 18.891L20.3618 20.673C20.9258 20.3856 21.3854 19.9269 21.6732 19.362L19.8912 18.454ZM17.8 7C18.3766 7 18.7488 7.00078 19.0321 7.02393C19.3036 7.04612 19.4043 7.08379 19.4538 7.10899L20.3618 5.32698C19.9834 5.1342 19.5903 5.06288 19.1949 5.03057C18.8113 4.99922 18.3435 5 17.8 5V7ZM22.0002 9.20002C22.0002 8.65647 22.001 8.18867 21.9696 7.80499C21.9373 7.40965 21.866 7.01643 21.6732 6.63805L19.8912 7.54603C19.9164 7.59548 19.9541 7.69619 19.9763 7.96786C19.9994 8.2512 20.0002 8.62347 20.0002 9.20002H22.0002ZM19.4538 7.10899C19.6424 7.20507 19.7956 7.35828 19.8912 7.54603L21.6732 6.63805C21.3854 6.07316 20.9259 5.61439 20.3618 5.32698L19.4538 7.10899ZM2 16.8C2 17.3435 1.99922 17.8114 2.03057 18.195C2.06287 18.5904 2.13419 18.9836 2.32698 19.362L4.10899 18.454C4.0838 18.4045 4.04612 18.3038 4.02393 18.0322C4.00078 17.7488 4 17.3766 4 16.8H2ZM6.2002 19C5.62367 19 5.25127 18.9992 4.96782 18.9761C4.69598 18.9538 4.59519 18.9161 4.54579 18.891L3.63781 20.673C4.01623 20.8658 4.40959 20.9371 4.80496 20.9694C5.18873 21.0008 5.65662 21 6.2002 21V19ZM2.32698 19.362C2.61449 19.9262 3.0731 20.3853 3.63781 20.673L4.54579 18.891C4.35784 18.7952 4.20498 18.6424 4.10899 18.454L2.32698 19.362ZM20.0002 9.20002L20.0002 16.8H22.0002L22.0002 9.20002L20.0002 9.20002ZM12.7073 5.29289L11.6446 4.23015L10.2304 5.64436L11.2931 6.7071L12.7073 5.29289ZM8.67452 3H5V5H8.67452V3ZM5 3C3.34315 3 2 4.34315 2 6H4C4 5.44772 4.44772 5 5 5V3ZM11.6446 4.23015C11.3323 3.91784 11.0655 3.642 10.7393 3.4421L9.6943 5.14738C9.77176 5.19485 9.8509 5.26487 10.2304 5.64436L11.6446 4.23015ZM8.67452 5C9.21134 5 9.317 5.00643 9.40531 5.02763L9.8722 3.08289C9.50015 2.99357 9.11605 3 8.67452 3V5ZM10.7393 3.4421C10.471 3.27768 10.1784 3.15641 9.8722 3.08289L9.40531 5.02763C9.50721 5.0521 9.60471 5.09248 9.6943 5.14738L10.7393 3.4421Z" fill="#FFD155"/>
</svg>
