<svg width="58" height="58" viewBox="0 0 58 58" fill="none" xmlns="http://www.w3.org/2000/svg">
<path d="M52.9433 30.4555H48.7671V23.4951C48.7671 23.2736 48.6791 23.0612 48.5224 22.9045C48.3658 22.7479 48.1533 22.6599 47.9318 22.6599H34.8463V15.6995C34.8463 15.478 34.7583 15.2655 34.6016 15.1089C34.445 14.9523 34.2325 14.8643 34.011 14.8643H5.61259C5.39107 14.8643 5.17862 14.9523 5.02198 15.1089C4.86534 15.2655 4.77734 15.478 4.77734 15.6995V41.8706C4.77734 42.0921 4.86534 42.3046 5.02198 42.4612C5.17862 42.6178 5.39107 42.7058 5.61259 42.7058H11.9716C12.0853 43.7495 12.5805 44.7145 13.362 45.4155C14.1435 46.1165 15.1564 46.5043 16.2063 46.5043C17.2562 46.5043 18.2691 46.1165 19.0506 45.4155C19.8322 44.7145 20.3273 43.7495 20.441 42.7058H39.1227C39.2365 43.751 39.7323 44.7173 40.5149 45.4193C41.2974 46.1213 42.3117 46.5095 43.363 46.5095C44.4143 46.5095 45.4286 46.1213 46.2112 45.4193C46.9937 44.7173 47.4895 43.751 47.6033 42.7058H52.9433C53.1648 42.7058 53.3773 42.6178 53.5339 42.4612C53.6905 42.3046 53.7785 42.0921 53.7785 41.8706V31.2908C53.7785 31.0693 53.6905 30.8568 53.5339 30.7002C53.3773 30.5435 53.1648 30.4555 52.9433 30.4555ZM16.1924 44.8441C15.6785 44.8463 15.1755 44.6958 14.7472 44.4118C14.3189 44.1278 13.9846 43.723 13.7866 43.2487C13.5887 42.7744 13.536 42.2521 13.6353 41.7478C13.7347 41.2436 13.9815 40.7802 14.3445 40.4164C14.7075 40.0526 15.1703 39.8048 15.6743 39.7044C16.1784 39.604 16.7008 39.6556 17.1755 39.8525C17.6502 40.0494 18.0558 40.3828 18.3407 40.8105C18.6257 41.2382 18.7772 41.7409 18.7761 42.2548C18.7747 42.9363 18.5052 43.5899 18.026 44.0743C17.5467 44.5588 16.8961 44.8353 16.2147 44.8441H16.1924ZM16.1924 37.9895C15.2781 37.9952 14.3897 38.2942 13.6579 38.8425C12.9262 39.3907 12.3898 40.1594 12.1275 41.0353H6.44784V16.5348H33.1758V41.0353H20.2907C20.0287 40.1571 19.4907 39.3867 18.7566 38.8381C18.0225 38.2895 17.1311 37.9919 16.2147 37.9895H16.1924ZM43.3602 44.8441C42.8468 44.8441 42.3449 44.6917 41.918 44.4064C41.4912 44.121 41.1586 43.7154 40.9624 43.241C40.7661 42.7665 40.7151 42.2445 40.8157 41.741C40.9162 41.2375 41.1639 40.7751 41.5274 40.4124C41.8908 40.0498 42.3537 39.8031 42.8574 39.7036C43.3611 39.6041 43.883 39.6563 44.3571 39.8535C44.8311 40.0508 45.236 40.3842 45.5205 40.8117C45.8049 41.2391 45.9562 41.7414 45.9551 42.2548C45.9536 42.942 45.6795 43.6006 45.1931 44.086C44.7066 44.5715 44.0474 44.8441 43.3602 44.8441ZM52.108 41.0353H47.4474C47.1804 40.1632 46.6406 39.3998 45.9074 38.8575C45.1741 38.3151 44.2862 38.0224 43.3741 38.0224C42.4621 38.0224 41.5741 38.3151 40.8409 38.8575C40.1077 39.3998 39.5679 40.1632 39.3009 41.0353H34.8463V24.3304H47.0966V31.2908C47.0966 31.5123 47.1846 31.7248 47.3412 31.8814C47.4978 32.038 47.7103 32.126 47.9318 32.126H52.108V41.0353Z" fill="white"/>
</svg>
